<svg xmlns="http://www.w3.org/2000/svg" viewBox="0 0 16 16" shape-rendering="crispEdges">
  <!-- helmet / head -->
  <rect x="4" y="1" width="8" height="7" fill="#2a4a5a"/>
  <rect x="5" y="1" width="6" height="6" fill="#3a6070"/>
  <!-- visor -->
  <rect x="5" y="3" width="6" height="2" fill="#44ccff"/>
  <rect x="6" y="3" width="4" height="2" fill="#88eeff"/>
  <!-- helmet top -->
  <rect x="6" y="1" width="4" height="1" fill="#4a8090"/>
  <rect x="4" y="2" width="1" height="1" fill="#4a8090"/>
  <rect x="11" y="2" width="1" height="1" fill="#4a8090"/>
  <!-- body — heavy guard armor -->
  <rect x="3" y="8" width="10" height="6" fill="#223040"/>
  <rect x="4" y="8" width="8" height="5" fill="#2a4050"/>
  <!-- chest piece -->
  <rect x="5" y="9" width="6" height="3" fill="#336080"/>
  <rect x="6" y="10" width="4" height="1" fill="#44ccff"/>
  <!-- shoulder pads -->
  <rect x="3" y="8" width="2" height="3" fill="#334455"/>
  <rect x="11" y="8" width="2" height="3" fill="#334455"/>
  <!-- legs -->
  <rect x="4" y="14" width="3" height="2" fill="#1a2830"/>
  <rect x="9" y="14" width="3" height="2" fill="#1a2830"/>
</svg>
