<svg width="16" height="16" xmlns="http://www.w3.org/2000/svg" viewBox="0 0 16 16" shape-rendering="crispEdges"><rect width="16" height="16" fill="#0000"/><rect x="5" y="0" width="6" height="1" fill="#2c1115"/><rect x="4" y="1" width="8" height="1" fill="#2c1115"/><rect x="3" y="2" width="1" height="3" fill="#2c1115"/><rect x="12" y="2" width="1" height="3" fill="#2c1115"/><rect x="4" y="2" width="8" height="3" fill="#f8d2c4"/><rect x="3" y="5" width="10" height="3" fill="#7b2b33"/><rect x="2" y="8" width="12" height="3" fill="#a74048"/><rect x="3" y="9" width="10" height="1" fill="#c9525b"/><rect x="2" y="11" width="12" height="2" fill="#75282f"/><rect x="4" y="13" width="3" height="2" fill="#472227"/><rect x="9" y="13" width="3" height="2" fill="#472227"/><rect x="5" y="4" width="1" height="1" fill="#fff"/><rect x="10" y="4" width="1" height="1" fill="#fff"/><rect x="6" y="6" width="1" height="1" fill="#2c1115"/><rect x="9" y="6" width="1" height="1" fill="#2c1115"/><rect x="6" y="8" width="4" height="1" fill="#5d1e25"/></svg>