<svg xmlns="http://www.w3.org/2000/svg" width="16" height="16" viewBox="0 0 16 16" shape-rendering="crispEdges">
  <!-- 回响盾 — 圆形盾牌 -->
  <!-- 盾牌边框 -->
  <rect x="4"  y="1"  width="8" height="1" fill="#2060c0"/>
  <rect x="2"  y="2"  width="2" height="1" fill="#2060c0"/>
  <rect x="12" y="2"  width="2" height="1" fill="#2060c0"/>
  <rect x="1"  y="3"  width="1" height="7" fill="#2060c0"/>
  <rect x="14" y="3"  width="1" height="7" fill="#2060c0"/>
  <rect x="2"  y="10" width="2" height="1" fill="#2060c0"/>
  <rect x="12" y="10" width="2" height="1" fill="#2060c0"/>
  <rect x="3"  y="11" width="2" height="1" fill="#2060c0"/>
  <rect x="11" y="11" width="2" height="1" fill="#2060c0"/>
  <rect x="5"  y="12" width="6" height="1" fill="#2060c0"/>
  <rect x="6"  y="13" width="4" height="1" fill="#1a4898"/>
  <rect x="7"  y="14" width="2" height="1" fill="#1a4898"/>
  <!-- 盾牌主面 -->
  <rect x="2"  y="2"  width="12" height="10" fill="#1040a0"/>
  <rect x="3"  y="11" width="10" height="1"  fill="#1040a0"/>
  <rect x="5"  y="12" width="6"  height="1"  fill="#0c3080"/>
  <!-- 盾牌高光 (左上) -->
  <rect x="2"  y="2"  width="5" height="5" fill="#2860c8"/>
  <rect x="2"  y="2"  width="3" height="3" fill="#3878e0"/>
  <!-- 内圆纹路 -->
  <rect x="5"  y="4"  width="6" height="1" fill="#4090e0"/>
  <rect x="4"  y="5"  width="1" height="4" fill="#4090e0"/>
  <rect x="11" y="5"  width="1" height="4" fill="#2870c0"/>
  <rect x="5"  y="9"  width="6" height="1" fill="#2870c0"/>
  <!-- 中心回响符文 -->
  <rect x="7"  y="6"  width="2" height="2" fill="#80c8ff"/>
  <rect x="6"  y="7"  width="4" height="1" fill="#60b0f0"/>
  <rect x="7"  y="5"  width="2" height="1" fill="#60b0f0"/>
  <rect x="7"  y="9"  width="2" height="1" fill="#4090d0"/>
</svg>
