<svg xmlns="http://www.w3.org/2000/svg" viewBox="0 0 64 64" shape-rendering="crispEdges">
  <rect width="64" height="64" fill="#0000"/>
  <rect x="30" y="2" width="4" height="10" fill="#352512"/>
  <rect x="26" y="10" width="12" height="4" fill="#352512"/>
  <rect x="28" y="4" width="8" height="8" fill="#f0d8a2"/>
  <rect x="22" y="14" width="20" height="4" fill="#3a5f88"/>
  <rect x="18" y="18" width="28" height="4" fill="#c8a96e"/>
  <rect x="14" y="22" width="36" height="4" fill="#2b4567"/>
  <rect x="12" y="26" width="40" height="4" fill="#7ad6ff" fill-opacity="0.75"/>
  <rect x="8" y="30" width="48" height="4" fill="#28435f"/>
  <rect x="6" y="34" width="52" height="4" fill="#3f6c9c"/>
  <rect x="10" y="38" width="44" height="4" fill="#22384f"/>
  <rect x="16" y="42" width="32" height="4" fill="#7adfbc" fill-opacity="0.8"/>
  <rect x="20" y="46" width="24" height="4" fill="#1f3242"/>
  <rect x="24" y="50" width="16" height="6" fill="#f0d8a2"/>
  <rect x="26" y="52" width="12" height="2" fill="#fff0c8"/>
  <rect x="22" y="20" width="4" height="4" fill="#d8f6ff" fill-opacity="0.5"/>
  <rect x="38" y="20" width="4" height="4" fill="#d8f6ff" fill-opacity="0.5"/>
  <rect x="30" y="28" width="4" height="8" fill="#e7f8ff" fill-opacity="0.5"/>
  <rect x="2" y="34" width="4" height="2" fill="#8acfff" fill-opacity="0.35"/>
  <rect x="58" y="34" width="4" height="2" fill="#8acfff" fill-opacity="0.35"/>
</svg>
