<svg xmlns="http://www.w3.org/2000/svg" viewBox="0 0 16 16" shape-rendering="crispEdges"><rect width="16" height="16" fill="#0000"/><rect x="5" y="0" width="6" height="1" fill="#2b1d16"/><rect x="4" y="1" width="8" height="1" fill="#2b1d16"/><rect x="3" y="2" width="1" height="3" fill="#2b1d16"/><rect x="12" y="2" width="1" height="3" fill="#2b1d16"/><rect x="4" y="2" width="8" height="3" fill="#7d5d2f"/><rect x="5" y="2" width="6" height="2" fill="#f2d2a2"/><rect x="6" y="4" width="4" height="1" fill="#d8b07c"/><rect x="4" y="5" width="8" height="1" fill="#2b1d16"/><rect x="3" y="6" width="10" height="2" fill="#1f3a5c"/><rect x="2" y="8" width="12" height="4" fill="#2f5e88"/><rect x="4" y="8" width="8" height="1" fill="#4a7aa5"/><rect x="3" y="9" width="2" height="2" fill="#18314d"/><rect x="11" y="9" width="2" height="2" fill="#18314d"/><rect x="6" y="9" width="4" height="2" fill="#c8a96e"/><rect x="7" y="10" width="2" height="1" fill="#7d5d2f"/><rect x="1" y="12" width="5" height="2" fill="#3f2a1d"/><rect x="10" y="12" width="5" height="2" fill="#3f2a1d"/><rect x="3" y="14" width="3" height="1" fill="#5a6f7b"/><rect x="10" y="14" width="3" height="1" fill="#5a6f7b"/><rect x="6" y="6" width="1" height="1" fill="#f7f6de"/><rect x="9" y="6" width="1" height="1" fill="#f7f6de"/><rect x="12" y="7" width="2" height="2" fill="#c8a96e"/><rect x="13" y="6" width="2" height="1" fill="#7d5d2f"/></svg>