<svg width="960" height="540" xmlns="http://www.w3.org/2000/svg" viewBox="0 0 960 540" shape-rendering="crispEdges"><rect width="960" height="540" fill="#0d1910"/><rect x="0" y="300" width="960" height="240" fill="#122315"/><rect x="40" y="40" width="220" height="120" fill="#27492d"/><rect x="220" y="20" width="280" height="140" fill="#315838"/><rect x="500" y="30" width="260" height="130" fill="#2a4d31"/><rect x="730" y="60" width="180" height="110" fill="#315838"/><rect x="70" y="330" width="120" height="170" fill="#223426"/><rect x="220" y="310" width="140" height="190" fill="#1f2f23"/><rect x="420" y="350" width="180" height="150" fill="#223426"/><rect x="690" y="320" width="120" height="180" fill="#1f2f23"/><rect x="350" y="210" width="260" height="8" fill="#78cf7d" fill-opacity="0.4"/><rect x="330" y="420" width="300" height="10" fill="#5bc4a2" fill-opacity="0.26"/><rect x="100" y="100" width="6" height="6" fill="#d0ff85"/><rect x="540" y="84" width="6" height="6" fill="#d0ff85"/><rect x="770" y="124" width="6" height="6" fill="#d0ff85"/></svg>