<svg width="960" height="540" xmlns="http://www.w3.org/2000/svg" viewBox="0 0 960 540" shape-rendering="crispEdges">
  <rect width="960" height="540" fill="#08111d"/>
  <rect y="280" width="960" height="260" fill="#0c1524"/>
  <rect y="360" width="960" height="180" fill="#0a111d"/>
  <rect x="70" y="84" width="160" height="6" fill="#18314f" fill-opacity="0.8"/>
  <rect x="640" y="122" width="180" height="6" fill="#18314f" fill-opacity="0.8"/>
  <rect x="106" y="80" width="2" height="2" fill="#ffffff"/>
  <rect x="702" y="138" width="2" height="2" fill="#b9d7ff"/>
  <rect x="544" y="64" width="2" height="2" fill="#b9d7ff"/>
  <rect x="420" y="112" width="120" height="120" fill="#c8a96e" fill-opacity="0.08"/>
  <rect x="448" y="140" width="64" height="64" fill="#e8d2a2" fill-opacity="0.14"/>
  <rect x="52" y="420" width="116" height="70" fill="#142338"/>
  <rect x="170" y="400" width="20" height="90" fill="#1b2d45"/>
  <rect x="192" y="410" width="72" height="80" fill="#21354f"/>
  <rect x="198" y="418" width="8" height="64" fill="#304c6e"/>
  <rect x="214" y="432" width="6" height="10" fill="#8acfff" fill-opacity="0.35"/>
  <rect x="276" y="376" width="110" height="114" fill="#18283d"/>
  <rect x="292" y="392" width="16" height="98" fill="#243a57"/>
  <rect x="316" y="392" width="16" height="98" fill="#101a29"/>
  <rect x="396" y="332" width="168" height="158" fill="#1a2b42"/>
  <rect x="416" y="352" width="22" height="138" fill="#28425f"/>
  <rect x="448" y="372" width="12" height="36" fill="#8acfff" fill-opacity="0.3"/>
  <rect x="470" y="352" width="26" height="138" fill="#101a29"/>
  <rect x="518" y="352" width="18" height="138" fill="#2b4566"/>
  <rect x="612" y="386" width="116" height="104" fill="#20324a"/>
  <rect x="624" y="402" width="10" height="88" fill="#314f73"/>
  <rect x="646" y="424" width="40" height="8" fill="#8acfff" fill-opacity="0.3"/>
  <rect x="752" y="344" width="136" height="146" fill="#18283c"/>
  <rect x="770" y="364" width="18" height="126" fill="#213752"/>
  <rect x="796" y="392" width="14" height="16" fill="#8acfff" fill-opacity="0.25"/>
  <rect x="84" y="404" width="792" height="4" fill="#31527a" fill-opacity="0.45"/>
  <rect x="82" y="438" width="40" height="2" fill="#213752"/>
  <rect x="834" y="372" width="22" height="8" fill="#8acfff" fill-opacity="0.25"/>
</svg>
